<svg width="29" height="31" viewBox="0 0 29 31" fill="none" xmlns="http://www.w3.org/2000/svg">
<path d="M14.8085 0.961386L14.8906 11.1395L10.9676 7.21648L3.84096 14.3431L11.687 22.1891L11.7256 26.9788L1.46543 16.7186C0.82515 16.0783 0.461378 15.214 0.454134 14.3158C0.44689 13.4175 0.796768 12.559 1.4268 11.9289L8.5534 4.80232L4.63039 0.879304L14.8085 0.961386ZM14.4464 30.2934L14.3643 20.1153L18.2873 24.0384L25.4139 16.9118L17.5679 9.06573L17.5293 4.27603L27.7894 14.5362C28.4297 15.1765 28.7935 16.0408 28.8007 16.9391C28.808 17.8373 28.4581 18.6959 27.8281 19.3259L20.7015 26.4525L24.6245 30.3755L14.4464 30.2934Z" fill="white"/>
</svg>
